<svg width="30" height="30" viewBox="0 0 30 30" fill="none" xmlns="http://www.w3.org/2000/svg">
<g clip-path="url(#clip0_3_628)">
<path opacity="0.02" d="M14.1001 1.7999V7.4999C14.1001 7.99696 14.503 8.3999 15.0001 8.3999C15.4972 8.3999 15.9001 7.99696 15.9001 7.4999V1.7999C15.9001 1.30285 15.4972 0.899902 15.0001 0.899902C14.503 0.899902 14.1001 1.30285 14.1001 1.7999Z" fill="#595959"/>
<path opacity="0.0833333" d="M20.8205 3.11846L17.9705 8.05481C17.722 8.48527 17.8695 9.0357 18.2999 9.28423C18.7304 9.53276 19.2808 9.38527 19.5294 8.95481L22.3794 4.01846C22.6279 3.588 22.4804 3.03757 22.0499 2.78904C21.6195 2.54051 21.069 2.688 20.8205 3.11846Z" fill="#595959"/>
<path opacity="0.166667" d="M25.9816 7.62065L21.0453 10.4707C20.6148 10.7192 20.4673 11.2696 20.7159 11.7001C20.9644 12.1305 21.5148 12.278 21.9453 12.0295L26.8816 9.1795C27.3121 8.93097 27.4596 8.38054 27.2111 7.95008C26.9625 7.51961 26.4121 7.37213 25.9816 7.62065Z" fill="#595959"/>
<path opacity="0.25" d="M28.2001 14.1001H22.5001C22.003 14.1001 21.6001 14.503 21.6001 15.0001C21.6001 15.4972 22.003 15.9001 22.5001 15.9001H28.2001C28.6972 15.9001 29.1001 15.4972 29.1001 15.0001C29.1001 14.503 28.6972 14.1001 28.2001 14.1001Z" fill="#595959"/>
<path opacity="0.333333" d="M26.8815 20.8205L21.9452 17.9705C21.5147 17.722 20.9643 17.8695 20.7158 18.2999C20.4672 18.7304 20.6147 19.2808 21.0452 19.5294L25.9815 22.3794C26.412 22.6279 26.9624 22.4804 27.211 22.0499C27.4595 21.6195 27.312 21.069 26.8815 20.8205Z" fill="#595959"/>
<path opacity="0.416667" d="M22.3793 25.9816L19.5293 21.0453C19.2808 20.6148 18.7304 20.4673 18.2999 20.7159C17.8695 20.9644 17.722 21.5148 17.9705 21.9453L20.8205 26.8816C21.069 27.3121 21.6195 27.4596 22.0499 27.2111C22.4804 26.9625 22.6279 26.4121 22.3793 25.9816Z" fill="#595959"/>
<path opacity="0.5" d="M15.8999 28.2001V22.5001C15.8999 22.003 15.497 21.6001 14.9999 21.6001C14.5028 21.6001 14.0999 22.003 14.0999 22.5001V28.2001C14.0999 28.6972 14.5028 29.1001 14.9999 29.1001C15.497 29.1001 15.8999 28.6972 15.8999 28.2001Z" fill="#595959"/>
<path opacity="0.583333" d="M9.17949 26.8815L12.0295 21.9452C12.278 21.5147 12.1305 20.9643 11.7001 20.7158C11.2696 20.4672 10.7192 20.6147 10.4706 21.0452L7.62065 25.9815C7.37212 26.412 7.51961 26.9624 7.95007 27.211C8.38053 27.4595 8.93096 27.312 9.17949 26.8815Z" fill="#595959"/>
<path opacity="0.666667" d="M4.01836 22.3793L8.95471 19.5293C9.38517 19.2808 9.53266 18.7304 9.28413 18.2999C9.0356 17.8695 8.48517 17.722 8.05471 17.9705L3.11836 20.8205C2.6879 21.069 2.54041 21.6195 2.78894 22.0499C3.03747 22.4804 3.5879 22.6279 4.01836 22.3793Z" fill="#595959"/>
<path opacity="0.75" d="M1.7999 15.8999H7.4999C7.99696 15.8999 8.3999 15.497 8.3999 14.9999C8.3999 14.5028 7.99696 14.0999 7.4999 14.0999H1.7999C1.30285 14.0999 0.899902 14.5028 0.899902 14.9999C0.899902 15.497 1.30285 15.8999 1.7999 15.8999Z" fill="#595959"/>
<path opacity="0.833333" d="M3.11846 9.17949L8.05481 12.0295C8.48527 12.278 9.0357 12.1305 9.28423 11.7001C9.53276 11.2696 9.38527 10.7192 8.95481 10.4706L4.01846 7.62065C3.588 7.37212 3.03757 7.51961 2.78904 7.95007C2.54051 8.38053 2.688 8.93096 3.11846 9.17949Z" fill="#595959"/>
<path opacity="0.916667" d="M7.62065 4.01836L10.4707 8.95471C10.7192 9.38517 11.2696 9.53266 11.7001 9.28413C12.1305 9.0356 12.278 8.48517 12.0295 8.05471L9.1795 3.11836C8.93097 2.6879 8.38054 2.54041 7.95008 2.78894C7.51961 3.03747 7.37213 3.5879 7.62065 4.01836Z" fill="#595959"/>
</g>
<defs>
<clipPath id="clip0_3_628">
<rect width="30" height="30" fill="white"/>
</clipPath>
</defs>
</svg>
